<?xml version="1.0" encoding="utf-8"?>
<!-- Generator: Adobe Illustrator 26.2.1, SVG Export Plug-In . SVG Version: 6.00 Build 0)  -->
<svg version="1.1" id="Layer_1" xmlns="http://www.w3.org/2000/svg" xmlns:xlink="http://www.w3.org/1999/xlink" x="0px" y="0px"
	 viewBox="0 0 107 30.7" style="enable-background:new 0 0 107 30.7;" xml:space="preserve">
<style type="text/css">
	.st0{fill:#0066FF;}
	.st1{fill:#9200D6;}
	.st2{fill:#002C6D;}
	.st3{fill:#D6D6D6;}
	.st4{fill:#EAEAEA;}
	.st5{fill:#FFFFFF;}
</style>
<g>
	<path class="st0" d="M43.9,9.8c0.7,0.3,1.2,0.8,1.6,1.3V9.5h2.3v11.2c0,1-0.2,1.9-0.6,2.7s-1,1.4-1.9,1.9c-0.8,0.5-1.8,0.7-2.9,0.7
		c-1.5,0-2.7-0.4-3.7-1c-1-0.7-1.5-1.6-1.7-2.9h2.3c0.2,0.6,0.5,1,1.1,1.4s1.2,0.5,2,0.5c0.9,0,1.7-0.3,2.2-0.8
		c0.6-0.6,0.8-1.4,0.8-2.5v-1.9c-0.4,0.5-0.9,1-1.6,1.3s-1.4,0.5-2.3,0.5c-1,0-1.8-0.2-2.6-0.7s-1.4-1.2-1.9-2
		c-0.5-0.9-0.7-1.9-0.7-3s0.2-2.1,0.7-2.9s1.1-1.5,1.9-2c0.8-0.5,1.7-0.7,2.6-0.7C42.4,9.3,43.2,9.5,43.9,9.8z M45,13
		c-0.3-0.6-0.7-1-1.2-1.3c-0.5-0.3-1.1-0.4-1.6-0.4s-1.1,0.1-1.6,0.4c-0.5,0.3-0.9,0.7-1.2,1.3c-0.3,0.6-0.5,1.2-0.5,2
		c0,0.8,0.2,1.4,0.5,2s0.7,1,1.2,1.3c0.5,0.3,1.1,0.5,1.6,0.5c0.6,0,1.1-0.1,1.6-0.4c0.5-0.3,0.9-0.7,1.2-1.3s0.5-1.2,0.5-2
		C45.4,14.2,45.3,13.6,45,13z"/>
	<path class="st0" d="M51.2,20.2c-0.7-0.3-1.2-0.7-1.6-1.3c-0.4-0.5-0.6-1.1-0.6-1.8h2.4c0,0.5,0.3,0.9,0.7,1.2
		c0.4,0.3,0.9,0.5,1.5,0.5c0.6,0,1.1-0.1,1.5-0.4c0.3-0.2,0.5-0.6,0.5-1c0-0.4-0.2-0.7-0.6-0.9s-1-0.4-1.9-0.7
		c-0.8-0.2-1.5-0.4-2-0.7s-1-0.5-1.3-1c-0.4-0.4-0.6-1-0.6-1.8c0-0.6,0.2-1.1,0.5-1.6c0.3-0.5,0.8-0.9,1.5-1.1
		c0.7-0.3,1.4-0.4,2.2-0.4c1.3,0,2.3,0.3,3,0.9c0.8,0.6,1.2,1.5,1.2,2.6h-2.3c0-0.5-0.2-0.9-0.6-1.2c-0.4-0.3-0.8-0.4-1.5-0.4
		c-0.6,0-1.1,0.1-1.4,0.3c-0.3,0.2-0.5,0.5-0.5,0.9c0,0.3,0.1,0.5,0.3,0.7s0.5,0.4,0.8,0.5c0.3,0.1,0.8,0.3,1.4,0.4
		c0.8,0.2,1.5,0.4,2,0.6c0.5,0.2,1,0.6,1.3,1c0.4,0.4,0.6,1,0.6,1.7c0,0.6-0.2,1.2-0.5,1.7c-0.3,0.5-0.8,0.9-1.5,1.2
		c-0.6,0.3-1.4,0.4-2.2,0.4C52.7,20.7,51.9,20.6,51.2,20.2z"/>
	<path class="st0" d="M69.4,9.5v11.1h-2.3v-1.3c-0.4,0.5-0.8,0.8-1.4,1.1s-1.2,0.4-1.9,0.4c-0.9,0-1.7-0.2-2.3-0.5s-1.2-0.9-1.6-1.6
		c-0.4-0.7-0.6-1.6-0.6-2.6V9.5h2.3v6.2c0,1,0.2,1.8,0.7,2.3s1.2,0.8,2,0.8c0.9,0,1.5-0.3,2-0.8c0.5-0.5,0.8-1.3,0.8-2.3V9.5H69.4z"
		/>
	<path class="st0" d="M73.5,20.2c-0.7-0.3-1.2-0.7-1.6-1.3c-0.4-0.5-0.6-1.1-0.6-1.8h2.4c0,0.5,0.3,0.9,0.7,1.2
		c0.4,0.3,0.9,0.5,1.5,0.5c0.6,0,1.1-0.1,1.5-0.4s0.5-0.6,0.5-1c0-0.4-0.2-0.7-0.6-0.9s-1-0.4-1.9-0.7c-0.8-0.2-1.5-0.4-2-0.7
		s-1-0.5-1.3-1s-0.6-1-0.6-1.8c0-0.6,0.2-1.1,0.5-1.6c0.3-0.5,0.8-0.9,1.5-1.1c0.7-0.3,1.4-0.4,2.2-0.4c1.3,0,2.3,0.3,3,0.9
		c0.8,0.6,1.2,1.5,1.2,2.6h-2.3c0-0.5-0.2-0.9-0.6-1.2s-0.8-0.4-1.5-0.4c-0.6,0-1.1,0.1-1.4,0.3c-0.3,0.2-0.5,0.5-0.5,0.9
		c0,0.3,0.1,0.5,0.3,0.7s0.5,0.4,0.8,0.5c0.3,0.1,0.8,0.3,1.4,0.4c0.8,0.2,1.5,0.4,2,0.6c0.5,0.2,1,0.6,1.3,1c0.4,0.4,0.6,1,0.6,1.7
		c0,0.6-0.2,1.2-0.5,1.7c-0.3,0.5-0.8,0.9-1.5,1.2c-0.6,0.3-1.4,0.4-2.2,0.4C75,20.7,74.2,20.6,73.5,20.2z"/>
	<path class="st0" d="M89.6,9.8c0.7,0.3,1.2,0.8,1.6,1.3V9.5h2.3v11.2c0,1-0.2,1.9-0.6,2.7s-1.1,1.4-1.9,1.9
		c-0.8,0.5-1.8,0.7-2.9,0.7c-1.5,0-2.7-0.4-3.7-1c-1-0.7-1.6-1.6-1.7-2.9h2.3c0.2,0.6,0.5,1,1.1,1.4s1.2,0.5,2,0.5
		c0.9,0,1.7-0.3,2.2-0.8s0.8-1.4,0.8-2.5v-1.9c-0.4,0.5-0.9,1-1.6,1.3c-0.7,0.4-1.4,0.5-2.3,0.5c-1,0-1.8-0.2-2.6-0.7
		s-1.4-1.2-1.9-2c-0.5-0.9-0.7-1.9-0.7-3s0.2-2.1,0.7-2.9s1.1-1.5,1.9-2c0.8-0.5,1.7-0.7,2.6-0.7C88.2,9.3,89,9.5,89.6,9.8z
		 M90.7,13c-0.3-0.6-0.7-1-1.2-1.3c-0.5-0.3-1.1-0.4-1.6-0.4c-0.6,0-1.1,0.1-1.6,0.4C85.7,12,85.3,12.4,85,13
		c-0.3,0.6-0.5,1.2-0.5,2c0,0.8,0.2,1.4,0.5,2s0.7,1,1.2,1.3c0.5,0.3,1.1,0.5,1.6,0.5c0.6,0,1.1-0.1,1.6-0.4
		c0.5-0.3,0.9-0.7,1.2-1.3c0.3-0.6,0.5-1.2,0.5-2C91.2,14.2,91,13.6,90.7,13z"/>
	<path class="st1" d="M96.6,7.6c-0.3-0.3-0.4-0.6-0.4-1s0.1-0.8,0.4-1c0.3-0.3,0.6-0.4,1-0.4c0.4,0,0.7,0.1,1,0.4s0.4,0.6,0.4,1
		s-0.1,0.8-0.4,1S98,8,97.7,8C97.2,8,96.9,7.9,96.6,7.6z"/>
	<path class="st1" d="M96.6,9.7c0.3-0.3,0.6-0.4,1-0.4s0.8,0.1,1,0.4s0.4,8.8,0.4,9.2c0,0.4-0.1,0.7-0.4,1s-0.6,0.4-1,0.4
		s-0.8-0.1-1-0.4s-0.4-0.6-0.4-1C96.2,18.5,96.3,10,96.6,9.7z"/>
	<path class="st0" d="M104.1,5.7v14.9h-2.3V5.7H104.1z"/>
</g>
<g>
	<path class="st2" d="M17.9,3c0.9,0.5,1.6,1,2.1,1.7V2.5h3.1v15.3c0,1.4-0.3,2.6-0.9,3.7c-0.6,1.1-1.4,1.9-2.5,2.6
		c-1.1,0.6-2.4,0.9-4,0.9c-2,0-3.7-0.5-5.1-1.4c-1.4-1-2.1-2.3-2.3-3.9h3.1c0.2,0.8,0.7,1.4,1.5,1.9c0.8,0.5,1.7,0.7,2.8,0.7
		c1.3,0,2.3-0.4,3.1-1.2c0.8-0.8,1.2-1.9,1.2-3.3v-2.5c-0.5,0.7-1.2,1.3-2.1,1.8s-1.9,0.7-3.1,0.7c-1.3,0-2.5-0.3-3.6-1
		c-1.1-0.7-1.9-1.6-2.6-2.8C8,12.9,7.7,11.5,7.7,10S8,7.1,8.6,6c0.6-1.2,1.5-2.1,2.6-2.7c1.1-0.6,2.3-1,3.6-1C16,2.3,17,2.5,17.9,3z
		 M19.4,7.3c-0.4-0.8-1-1.4-1.7-1.8C17,5.2,16.2,5,15.4,5c-0.8,0-1.6,0.2-2.2,0.6c-0.7,0.4-1.3,1-1.7,1.7C11.1,8,10.9,8.9,10.9,10
		s0.2,2,0.6,2.7c0.4,0.8,1,1.4,1.7,1.8c0.7,0.4,1.4,0.6,2.2,0.6c0.8,0,1.6-0.2,2.2-0.6c0.7-0.4,1.3-1,1.7-1.8C19.8,12,20,11.1,20,10
		S19.8,8.1,19.4,7.3z"/>
	<g>
		<path class="st0" d="M25.1,6.3v2.2c-0.5-0.7-1.2-1.3-2.1-1.7c-0.9-0.4-1.8-0.7-2.9-0.7v2.7c0.1,0,0.3,0,0.4,0
			c0.8,0,1.6,0.2,2.2,0.6c0.7,0.4,1.3,1,1.7,1.8c0.4,0.8,0.6,1.7,0.6,2.7c0,1-0.2,1.9-0.6,2.7c-0.4,0.8-1,1.4-1.7,1.8
			c-0.7,0.4-1.4,0.6-2.2,0.6c-0.1,0-0.3,0-0.4,0v2.7c1.1,0,2-0.3,2.9-0.7c0.9-0.5,1.6-1.1,2.1-1.8v2.5c0,1.5-0.4,2.6-1.2,3.3
			c-0.8,0.8-1.8,1.1-3.1,1.1c-0.3,0-0.5,0-0.8,0v2.7c0.3,0,0.5,0,0.8,0c1.5,0,2.9-0.3,4-0.9c1.1-0.6,1.9-1.5,2.5-2.6
			c0.6-1.1,0.9-2.3,0.9-3.7V6.3H25.1z"/>
		<g>
			<path class="st0" d="M15,22.3V25c-1.7-0.1-3.1-0.6-4.3-1.4c-1.4-1-2.1-2.3-2.3-3.9h3.1c0.2,0.8,0.7,1.4,1.5,1.9
				C13.6,22,14.3,22.2,15,22.3z"/>
			<path class="st0" d="M11.5,7.3C11.1,8,10.9,8.9,10.9,10s0.2,1.9,0.6,2.7c0.4,0.8,1,1.4,1.7,1.8c0.6,0.3,1.2,0.5,1.8,0.6v2.7
				c-0.1,0-0.1,0-0.2,0c-1.3,0-2.5-0.3-3.6-1c-1.1-0.7-1.9-1.6-2.6-2.8C8,12.9,7.7,11.5,7.7,10c0-1.5,0.3-2.9,0.9-4
				c0.6-1.2,1.5-2.1,2.6-2.7c1.1-0.7,2.3-1,3.6-1c0.1,0,0.1,0,0.2,0V5c-0.6,0.1-1.2,0.3-1.8,0.6C12.5,6,11.9,6.5,11.5,7.3z"/>
		</g>
		<polygon class="st1" points="15,2.3 20.1,6 20.1,8.8 15,5 		"/>
		<polygon class="st1" points="15,15.1 20.1,18.9 20.1,21.6 15,17.8 		"/>
		<polygon class="st1" points="15,22.3 20.1,26.1 20.1,28.8 15,25 		"/>
	</g>
</g>
</svg>
