<?xml version="1.0" encoding="utf-8"?>
<!-- Generator: Adobe Illustrator 26.2.1, SVG Export Plug-In . SVG Version: 6.00 Build 0)  -->
<svg version="1.1" id="Layer_1" xmlns="http://www.w3.org/2000/svg" xmlns:xlink="http://www.w3.org/1999/xlink" x="0px" y="0px"
	 viewBox="0 0 107 30.7" style="enable-background:new 0 0 107 30.7;" xml:space="preserve">
<style type="text/css">
	.st0{fill:#0066FF;}
	.st1{fill:#9200D6;}
	.st2{fill:#002C6D;}
	.st3{fill:#FFFFFF;}
	.st4{fill:#D6D6D6;}
	.st5{fill:#BCBCBC;}
</style>
<g>
	<path class="st3" d="M40.3,10c0.7,0.3,1.2,0.8,1.6,1.3V9.7h2.3v11.2c0,1-0.2,1.9-0.6,2.7s-1,1.4-1.9,1.9c-0.8,0.5-1.8,0.7-2.9,0.7
		c-1.5,0-2.7-0.4-3.7-1c-1-0.7-1.5-1.6-1.7-2.9h2.3c0.2,0.6,0.5,1,1.1,1.4s1.2,0.5,2,0.5c0.9,0,1.7-0.3,2.2-0.8
		c0.6-0.6,0.8-1.4,0.8-2.5v-1.9c-0.4,0.5-0.9,1-1.6,1.3s-1.4,0.5-2.3,0.5c-1,0-1.8-0.2-2.6-0.7s-1.4-1.2-1.9-2
		c-0.5-0.9-0.7-1.9-0.7-3s0.2-2.1,0.7-2.9s1.1-1.5,1.9-2c0.8-0.5,1.7-0.7,2.6-0.7C38.9,9.5,39.7,9.7,40.3,10z M41.4,13.2
		c-0.3-0.6-0.7-1-1.2-1.3c-0.5-0.3-1.1-0.4-1.6-0.4s-1.1,0.1-1.6,0.4c-0.5,0.3-0.9,0.7-1.2,1.3c-0.3,0.6-0.5,1.2-0.5,2
		c0,0.8,0.2,1.4,0.5,2s0.7,1,1.2,1.3c0.5,0.3,1.1,0.5,1.6,0.5c0.6,0,1.1-0.1,1.6-0.4c0.5-0.3,0.9-0.7,1.2-1.3s0.5-1.2,0.5-2
		C41.9,14.5,41.7,13.8,41.4,13.2z"/>
	<path class="st3" d="M47.7,20.5c-0.7-0.3-1.2-0.7-1.6-1.3c-0.4-0.5-0.6-1.1-0.6-1.8h2.4c0,0.5,0.3,0.9,0.7,1.2
		c0.4,0.3,0.9,0.5,1.5,0.5c0.6,0,1.1-0.1,1.5-0.4c0.3-0.2,0.5-0.6,0.5-1c0-0.4-0.2-0.7-0.6-0.9s-1-0.4-1.9-0.7
		c-0.8-0.2-1.5-0.4-2-0.7s-1-0.5-1.3-1c-0.4-0.4-0.6-1-0.6-1.8c0-0.6,0.2-1.1,0.5-1.6c0.3-0.5,0.8-0.9,1.5-1.1
		c0.7-0.3,1.4-0.4,2.2-0.4c1.3,0,2.3,0.3,3,0.9c0.8,0.6,1.2,1.5,1.2,2.6h-2.3c0-0.5-0.2-0.9-0.6-1.2c-0.4-0.3-0.8-0.4-1.5-0.4
		c-0.6,0-1.1,0.1-1.4,0.3c-0.3,0.2-0.5,0.5-0.5,0.9c0,0.3,0.1,0.5,0.3,0.7s0.5,0.4,0.8,0.5c0.3,0.1,0.8,0.3,1.4,0.4
		c0.8,0.2,1.5,0.4,2,0.6c0.5,0.2,1,0.6,1.3,1c0.4,0.4,0.6,1,0.6,1.7c0,0.6-0.2,1.2-0.5,1.7c-0.3,0.5-0.8,0.9-1.5,1.2
		c-0.6,0.3-1.4,0.4-2.2,0.4C49.2,20.9,48.4,20.8,47.7,20.5z"/>
	<path class="st3" d="M65.8,9.7v11.1h-2.3v-1.3c-0.4,0.5-0.8,0.8-1.4,1.1s-1.2,0.4-1.9,0.4c-0.9,0-1.7-0.2-2.3-0.5s-1.2-0.9-1.6-1.6
		c-0.4-0.7-0.6-1.6-0.6-2.6V9.7H58v6.2c0,1,0.2,1.7,0.7,2.3s1.2,0.8,2,0.8c0.9,0,1.5-0.3,2-0.8c0.5-0.5,0.8-1.3,0.8-2.3V9.7H65.8z"
		/>
	<path class="st3" d="M70,20.5c-0.7-0.3-1.2-0.7-1.6-1.3c-0.4-0.5-0.6-1.1-0.6-1.8h2.4c0,0.5,0.3,0.9,0.7,1.2
		c0.4,0.3,0.9,0.5,1.5,0.5c0.6,0,1.1-0.1,1.5-0.4s0.5-0.6,0.5-1c0-0.4-0.2-0.7-0.6-0.9s-1-0.4-1.9-0.7c-0.8-0.2-1.5-0.4-2-0.7
		s-1-0.5-1.3-1s-0.6-1-0.6-1.8c0-0.6,0.2-1.1,0.5-1.6c0.3-0.5,0.8-0.9,1.5-1.1c0.7-0.3,1.4-0.4,2.2-0.4c1.3,0,2.3,0.3,3,0.9
		c0.8,0.6,1.2,1.5,1.2,2.6h-2.3c0-0.5-0.2-0.9-0.6-1.2s-0.8-0.4-1.5-0.4c-0.6,0-1.1,0.1-1.4,0.3c-0.3,0.2-0.5,0.5-0.5,0.9
		c0,0.3,0.1,0.5,0.3,0.7s0.5,0.4,0.8,0.5c0.3,0.1,0.8,0.3,1.4,0.4c0.8,0.2,1.5,0.4,2,0.6c0.5,0.2,1,0.6,1.3,1c0.4,0.4,0.6,1,0.6,1.7
		c0,0.6-0.2,1.2-0.5,1.7c-0.3,0.5-0.8,0.9-1.5,1.2c-0.6,0.3-1.4,0.4-2.2,0.4C71.5,20.9,70.7,20.8,70,20.5z"/>
	<path class="st3" d="M86.1,10c0.7,0.3,1.2,0.8,1.6,1.3V9.7H90v11.2c0,1-0.2,1.9-0.6,2.7s-1.1,1.4-1.9,1.9c-0.8,0.5-1.8,0.7-2.9,0.7
		c-1.5,0-2.7-0.4-3.7-1c-1-0.7-1.6-1.6-1.7-2.9h2.3c0.2,0.6,0.5,1,1.1,1.4s1.2,0.5,2,0.5c0.9,0,1.7-0.3,2.2-0.8s0.8-1.4,0.8-2.5
		v-1.9c-0.4,0.5-0.9,1-1.6,1.3c-0.7,0.4-1.4,0.5-2.3,0.5c-1,0-1.8-0.2-2.6-0.7s-1.4-1.2-1.9-2c-0.5-0.9-0.7-1.9-0.7-3
		s0.2-2.1,0.7-2.9s1.1-1.5,1.9-2c0.8-0.5,1.7-0.7,2.6-0.7C84.7,9.5,85.4,9.7,86.1,10z M87.2,13.2c-0.3-0.6-0.7-1-1.2-1.3
		c-0.5-0.3-1.1-0.4-1.6-0.4c-0.6,0-1.1,0.1-1.6,0.4c-0.5,0.3-0.9,0.7-1.2,1.3c-0.3,0.6-0.5,1.2-0.5,2c0,0.8,0.2,1.4,0.5,2
		s0.7,1,1.2,1.3c0.5,0.3,1.1,0.5,1.6,0.5c0.6,0,1.1-0.1,1.6-0.4c0.5-0.3,0.9-0.7,1.2-1.3c0.3-0.6,0.5-1.2,0.5-2
		C87.7,14.5,87.5,13.8,87.2,13.2z"/>
	<path class="st4" d="M93.1,7.8c-0.3-0.3-0.4-0.6-0.4-1s0.1-0.8,0.4-1c0.3-0.3,0.6-0.4,1-0.4c0.4,0,0.7,0.1,1,0.4s0.4,0.6,0.4,1
		s-0.1,0.8-0.4,1c-0.3,0.3-0.6,0.4-1,0.4C93.7,8.2,93.4,8.1,93.1,7.8z"/>
	<path class="st4" d="M93.1,9.9c0.3-0.3,0.6-0.4,1-0.4s0.8,0.1,1,0.4s0.4,8.8,0.4,9.2c0,0.4-0.1,0.7-0.4,1s-0.6,0.4-1,0.4
		s-0.8-0.1-1-0.4s-0.4-0.6-0.4-1C92.7,18.7,92.8,10.2,93.1,9.9z"/>
	<path class="st3" d="M100.6,5.9v14.9h-2.3V5.9H100.6z"/>
</g>
<g>
	<path class="st5" d="M14.4,3.2c0.9,0.5,1.6,1,2.1,1.7V2.7h3.1v15.3c0,1.4-0.3,2.6-0.9,3.7c-0.6,1.1-1.4,1.9-2.5,2.6
		c-1.1,0.6-2.4,0.9-4,0.9c-2,0-3.7-0.5-5.1-1.4c-1.4-1-2.1-2.3-2.3-3.9H8c0.2,0.8,0.7,1.4,1.5,1.9c0.8,0.5,1.7,0.7,2.8,0.7
		c1.3,0,2.3-0.4,3.1-1.2c0.8-0.8,1.2-1.9,1.2-3.3v-2.5c-0.5,0.7-1.2,1.3-2.1,1.8c-0.9,0.5-1.9,0.7-3.1,0.7c-1.3,0-2.5-0.3-3.6-1
		c-1.1-0.7-1.9-1.6-2.6-2.8c-0.6-1.2-0.9-2.5-0.9-4.1s0.3-2.9,0.9-4C5.7,5,6.6,4.1,7.7,3.5c1.1-0.6,2.3-1,3.6-1
		C12.4,2.5,13.5,2.7,14.4,3.2z M15.9,7.6c-0.4-0.8-1-1.4-1.7-1.8c-0.7-0.4-1.4-0.6-2.2-0.6s-1.6,0.2-2.2,0.6C9,6.2,8.4,6.8,8,7.5
		s-0.6,1.7-0.6,2.7s0.2,2,0.6,2.7c0.4,0.8,1,1.4,1.7,1.8c0.7,0.4,1.4,0.6,2.2,0.6c0.8,0,1.6-0.2,2.2-0.6c0.7-0.4,1.3-1,1.7-1.8
		c0.4-0.8,0.6-1.7,0.6-2.7S16.3,8.3,15.9,7.6z"/>
	<g>
		<path class="st3" d="M21.6,6.5v2.2C21,8,20.3,7.4,19.4,7c-0.9-0.4-1.8-0.7-2.9-0.7V9c0.1,0,0.3,0,0.4,0c0.8,0,1.6,0.2,2.2,0.6
			c0.7,0.4,1.3,1,1.7,1.8c0.4,0.8,0.6,1.7,0.6,2.7c0,1-0.2,1.9-0.6,2.7c-0.4,0.8-1,1.4-1.7,1.8c-0.7,0.4-1.4,0.6-2.2,0.6
			c-0.1,0-0.3,0-0.4,0v2.7c1.1,0,2-0.3,2.9-0.7c0.9-0.5,1.6-1.1,2.1-1.8v2.5c0,1.5-0.4,2.6-1.2,3.3c-0.8,0.8-1.8,1.1-3.1,1.1
			c-0.3,0-0.5,0-0.8,0V29c0.3,0,0.5,0,0.8,0c1.5,0,2.9-0.3,4-0.9c1.1-0.6,1.9-1.5,2.5-2.6c0.6-1.1,0.9-2.3,0.9-3.7V6.5H21.6z"/>
		<g>
			<path class="st3" d="M11.5,22.5v2.7c-1.7-0.1-3.1-0.6-4.3-1.4c-1.4-1-2.1-2.3-2.3-3.9H8c0.2,0.8,0.7,1.4,1.5,1.9
				C10.1,22.2,10.7,22.4,11.5,22.5z"/>
			<path class="st3" d="M8,7.5c-0.4,0.8-0.6,1.7-0.6,2.7s0.2,1.9,0.6,2.7c0.4,0.8,1,1.4,1.7,1.8c0.6,0.3,1.2,0.5,1.8,0.6v2.7
				c-0.1,0-0.1,0-0.2,0c-1.3,0-2.5-0.3-3.6-1c-1.1-0.7-1.9-1.6-2.6-2.8c-0.6-1.2-0.9-2.6-0.9-4.1c0-1.5,0.3-2.9,0.9-4
				C5.7,5,6.6,4.1,7.7,3.5c1.1-0.7,2.3-1,3.6-1c0.1,0,0.1,0,0.2,0v2.7c-0.6,0.1-1.2,0.3-1.8,0.6C9,6.2,8.4,6.8,8,7.5z"/>
		</g>
		<polygon class="st4" points="11.5,2.5 16.5,6.3 16.5,9 11.5,5.2 		"/>
		<polygon class="st4" points="11.5,15.3 16.5,19.1 16.5,21.8 11.5,18.1 		"/>
		<polygon class="st4" points="11.5,22.5 16.5,26.3 16.5,29 11.5,25.2 		"/>
	</g>
</g>
</svg>
